<?xml version="1.0" encoding="UTF-8" standalone="no"?><!DOCTYPE svg PUBLIC "-//W3C//DTD SVG 1.1//EN" "http://www.w3.org/Graphics/SVG/1.1/DTD/svg11.dtd"><svg width="100%" height="100%" viewBox="0 0 4267 2717" version="1.1" xmlns="http://www.w3.org/2000/svg" xmlns:xlink="http://www.w3.org/1999/xlink" xml:space="preserve" xmlns:serif="http://www.serif.com/" style="fill-rule:evenodd;clip-rule:evenodd;stroke-linejoin:round;stroke-miterlimit:2;"><path d="M1939.39,2715.15l-0,-775.758l1163.64,-1163.64l0,-387.879l387.879,-387.879l775.758,0l-0,775.758l-1163.64,1163.64l0,387.879l-387.878,387.879l-775.758,-0Zm-1551.52,-0l-0,-775.758l1163.64,-1163.64l0,-387.879l387.879,-387.879l775.758,0l-0,775.758l-1163.64,1163.64l0,387.879l-387.879,387.879l-775.757,-0Zm-387.879,-2327.27l387.879,-387.879l775.757,0l0,775.758l-775.757,775.757l-387.879,0l0,-1163.64Z"/></svg>